<?xml version="1.0" encoding="UTF-8"?>
<svg version="1.1" viewBox="0 0 417.91 401.28" xmlns="http://www.w3.org/2000/svg" xmlns:cc="http://creativecommons.org/ns#" xmlns:dc="http://purl.org/dc/elements/1.1/" xmlns:rdf="http://www.w3.org/1999/02/22-rdf-syntax-ns#">
  <defs>
    <filter id="d" width="1.3" height="1.3" color-interpolation-filters="sRGB">
      <feFlood flood-color="rgb(0,0,0)" flood-opacity=".49804" result="flood"/>
      <feComposite in="flood" in2="SourceGraphic" operator="in" result="composite1"/>
      <feGaussianBlur in="composite1" result="blur" stdDeviation="3"/>
      <feOffset dx="6" dy="6" result="offset"/>
      <feComposite in="SourceGraphic" in2="offset" result="composite2"/>
    </filter>
    <filter id="e" width="1.3" height="1.3" color-interpolation-filters="sRGB">
      <feFlood flood-color="rgb(0,0,0)" flood-opacity=".49804" result="flood"/>
      <feComposite in="flood" in2="SourceGraphic" operator="in" result="composite1"/>
      <feGaussianBlur in="composite1" result="blur" stdDeviation="3"/>
      <feOffset dx="6" dy="6" result="offset"/>
      <feComposite in="SourceGraphic" in2="offset" result="composite2"/>
    </filter>
    <filter id="f" width="1.3" height="1.3" color-interpolation-filters="sRGB">
      <feFlood flood-color="rgb(0,0,0)" flood-opacity=".49804" result="flood"/>
      <feComposite in="flood" in2="SourceGraphic" operator="in" result="composite1"/>
      <feGaussianBlur in="composite1" result="blur" stdDeviation="3"/>
      <feOffset dx="6" dy="6" result="offset"/>
      <feComposite in="SourceGraphic" in2="offset" result="composite2"/>
    </filter>
  </defs>
  <metadata>
    <rdf:RDF>
      <cc:Work rdf:about="">
        <dc:format>image/svg+xml</dc:format>
        <dc:type rdf:resource="http://purl.org/dc/dcmitype/StillImage"/>
        <dc:title/>
      </cc:Work>
    </rdf:RDF>
    <rdf:RDF>
      <cc:Work rdf:about="">
        <dc:title/>
      </cc:Work>
    </rdf:RDF>
  </metadata>
  <g transform="translate(-31.229 -44.88)" fill="none" stroke="#fdfdfd" stroke-width="5">
    <path d="m158.57 111.71c24 24 30.558-29.59 56-16l25.607 13.679"/>
    <path d="m360.13 132.88s49.304-0.58929 41.304 31.411-37.393 28.717-29.393 44.717 5.3934 19.283 5.3934 19.283"/>
  </g>
  <g transform="translate(-31.229 -44.88)">
    <text fill="#000000" font-family="sans-serif" font-size="40px" style="line-height:1.25;shape-inside:url(#rect841);white-space:pre" xml:space="preserve"/>
    <text fill="#000000" font-family="sans-serif" font-size="40px" style="line-height:1.25;shape-inside:url(#rect847);white-space:pre" xml:space="preserve"/>
    <g transform="matrix(.98878 0 0 1 30.523 55)" fill="#08080c" style="font-variant-caps:normal;font-variant-east-asian:normal;font-variant-ligatures:normal;font-variant-numeric:normal;shape-inside:url(#rect853);white-space:pre" aria-label="Deej Potter">
      <path d="m359.71 327.08q2.28 0.72 3.72 2.52 1.56 1.68 1.56 5.52t-2.28 8.4q-2.28 4.56-6.6 4.56-2.16 0-4.2-0.96-1.92-0.96-5.16-0.96t-6.12 2.28q-2.76 2.28-2.76 5.52v25.2q0 2.76-0.24001 4.2-0.12 1.32-1.08 3.12-1.8 3.12-9.36 3.12-5.76 0-8.28-2.04-1.92-1.68-2.16-5.16 0-1.2 0-3.48v-42.12q0-2.76 0.12001-4.08 0.24-1.44 1.08-3.12 1.68-3.24 9.36-3.24 7.2 0 9 2.76 1.32 1.92 1.32 3.96 0.6-0.84 1.68-2.04 1.2-1.2 4.92-3.24t6.48-2.04q2.88 0 4.8 0.36 1.92 0.24 4.2 0.96zm-50.672 23.4q0 7.32-3.72 10.92-3.6 3.48-8.04 3.48h-28.44q0 3.36 3.96 5.64t7.92 2.28q6.96 0 10.92-1.44l1.32-0.48q2.88-1.32 4.8-1.32 3.84 0 6.6 5.4 1.56 3.24 1.56 5.52 0 10.68-25.56 10.68-8.88 0-15.84-3-6.84-3.12-10.68-8.16-7.56-9.72-7.56-21.72 0-15.12 9.72-24.12 9.84-9.12 24.48-9.12 16.68 0 24.48 11.76 4.08 6.24 4.08 13.68zm-25.32 3.48q4.56 0 4.56-3.84 0-2.76-2.16-4.44-2.04-1.68-6-1.68-3.84 0-7.68 3.24-3.84 3.12-3.84 6.72zm-52.911-6.36-7.8-0.48v16.56q0 3.24 0.96 4.68 1.08 1.44 3.84 1.44 2.88 0 4.32 0.24 1.56 0.12 3.12 1.08 2.88 1.56 2.88 8.04 0 7.56-3.36 9.24-1.8 0.84-3.24 1.08-1.32 0.12-3.96 0.12-12 0-18.72-6.24t-6.72-18.48v-17.76q-5.76 0.48-9.6 0.48l-10.92-0.48v16.56q0 3.24 0.96 4.68 1.08 1.44 3.84 1.44 2.88 0 4.32 0.24 1.56 0.12 3.24 1.08 2.76 1.56 2.76 8.04 0 7.56-3.36 9.24-1.8 0.84-3.24 1.08-1.32 0.12-3.96 0.12-12 0-18.72-6.24t-6.72-18.48v-17.76q-2.4 0.36-5.04 0.36-2.52 0-4.32-2.04-1.68-2.04-1.68-6.96t0.6-7.08q0.6-2.28 1.68-3.24 1.92-1.56 4.8-1.56l3.96 0.48v-12.36q0-2.76 0.12-4.08 0.24-1.32 1.2-2.88 1.56-3 9.24-3 8.16 0 9.72 4.44 0.6 1.92 0.6 6.12v11.4q5.64-0.12 10.68-0.12l9.84 0.12v-12q0-2.76 0.12001-4.08 0.23999-1.32 1.08-2.88 1.68-3 9.36-3 8.16 0 9.6 4.44 0.72 1.92 0.72 6.12v11.76q5.28-0.48 7.92-0.48 2.76 0 4.08 0.24 1.44 0.12 3.12 1.08 3.24 1.56 3.24 9.24 0 7.56-3.24 9.24-1.8 0.84-3.24 1.08-1.32 0.12-4.08 0.12zm-151.87 10.44q0-14.4 10.08-23.76t23.04-9.36 22.92 9.36q9.96 9.24 9.96 23.64 0 9.96-5.16 17.76-5.16 7.68-12.6 11.4-7.32 3.6-15.24 3.6t-15.36-3.84q-7.44-3.96-12.6-11.52-5.04-7.68-5.04-17.28zm25.08 8.64q3.84 2.88 7.8 2.88t7.92-3 3.96-8.88-3.72-8.76-8.04-2.88-8.04 3-3.72 8.88q0 5.76 3.84 8.76zm-34.298-47.28q3.12 6.36 3.12 14.16t-3.12 14.16q-3.12 6.24-8.04 9.96-9.96 7.68-20.64 7.68h-15v13.56q0 2.76-0.24 4.2-0.12 1.32-1.08 3.12-1.68 3.24-9.36 3.24-8.4 0-9.84-4.44-0.72-2.04-0.72-6.24v-66.6q0-2.76 0.12-4.08 0.24-1.44 1.2-3.24 1.68-3.24 9.36-3.24h25.68q10.56 0 20.52 7.68 4.92 3.72 8.04 10.08zm-28.56 24.72q3.6 0 7.08-2.64t3.48-7.92-3.48-7.92q-3.48-2.76-7.2-2.76h-15v21.24zm201.44-177.12q-2.16 0.6-5.88 0.6t-5.88-0.72-3.12-2.4q-0.84-1.8-1.08-3.12-0.12-1.44-0.12-4.2t0.12-4.08q0.24-1.32 1.08-3 1.68-3.12 9.24-3.12 7.2 0 9 3.12 0.84 1.56 0.96 2.88 0.24 1.32 0.24 3.96v0.72q0 2.64-0.24 3.96-0.12 1.32-1.08 3t-3.24 2.4zm-11.64 9.72q2.28-0.72 6-0.72t5.88 0.72 3 2.52q0.96 1.68 1.08 3.12 0.24 1.32 0.24 4.08v49.44q0 14.04-9.72 22.44t-21.36 8.4q-2.76 0-4.08-0.24-1.32-0.12-3-0.96-3.12-1.68-3.12-8.76t2.64-8.88q2.52-1.8 6.96-1.8 4.32 0 7.68-2.4t3.36-8.64v-49.44q0-4.2 1.08-6.12 1.2-2.04 3.36-2.76zm-12.152 23.76q0 7.32-3.72 10.92-3.6 3.48-8.04 3.48h-28.44q0 3.36 3.96 5.64t7.92 2.28q6.96 0 10.92-1.44l1.32-0.48q2.88-1.32 4.8-1.32 3.84 0 6.6 5.4 1.56 3.24 1.56 5.52 0 10.68-25.56 10.68-8.88 0-15.84-3-6.84-3.12-10.68-8.16-7.56-9.72-7.56-21.72 0-15.12 9.72-24.12 9.84-9.12 24.48-9.12 16.68 0 24.48 11.76 4.08 6.24 4.08 13.68zm-25.32 3.48q4.56 0 4.56-3.84 0-2.76-2.16-4.44-2.04-1.68-6-1.68-3.84 0-7.68 3.24-3.84 3.12-3.84 6.72zm-43.352-3.48q0 7.32-3.72 10.92-3.6 3.48-8.04 3.48h-28.44q0 3.36 3.96 5.64t7.92 2.28q6.96 0 10.92-1.44l1.32-0.48q2.88-1.32 4.8-1.32 3.84 0 6.6 5.4 1.56 3.24 1.56 5.52 0 10.68-25.56 10.68-8.88 0-15.84-3-6.84-3.12-10.68-8.16-7.56-9.72-7.56-21.72 0-15.12 9.72-24.12 9.84-9.12 24.48-9.12 16.68 0 24.48 11.76 4.08 6.24 4.08 13.68zm-25.32 3.48q4.56 0 4.56-3.84 0-2.76-2.16-4.44-2.04-1.68-6-1.68-3.84 0-7.68 3.24-3.84 3.12-3.84 6.72zm-109.34-52.44 22.2 0.12q17.4 0 30.6 12.6 13.2 12.48 13.2 30.84 0 18.24-12.96 31.32-12.84 13.08-31.2 13.08h-21.96q-7.32 0-9.12-3-1.44-2.52-1.44-7.68v-66.72q0-2.88 0.12-4.2 0.24-1.32 1.2-3.12 1.68-3.24 9.36-3.24zm22.2 66.72q8.64 0 15.6-6.36 6.96-6.48 6.96-16.2t-6.84-16.2q-6.72-6.6-15.84-6.6h-11.52v45.36z" fill="#08080c" style="font-variant-caps:normal;font-variant-east-asian:normal;font-variant-ligatures:normal;font-variant-numeric:normal"/>
    </g>
    <ellipse cx="99.857" cy="115.29" rx="58.681" ry="58.681" fill="none" filter="url(#e)" opacity=".991" stroke="#73c2d4" stroke-width="15"/>
    <ellipse cx="304.71" cy="117.64" rx="58.668" ry="59.025" fill="none" filter="url(#d)" opacity=".991" stroke="#1e9952" stroke-width="15"/>
    <ellipse cx="369.86" cy="286.36" rx="58.668" ry="59.025" fill="none" filter="url(#f)" opacity=".991" stroke="#3a2c33" stroke-width="15"/>
  </g>
</svg>
