<svg id="visual" viewBox="0 0 900 450" width="900" height="450" xmlns="http://www.w3.org/2000/svg" xmlns:xlink="http://www.w3.org/1999/xlink" version="1.1"><path d="M0 439L30 439C60 439 120 439 180 433C240 427 300 415 360 412.7C420 410.3 480 417.7 540 415.3C600 413 660 401 720 401.8C780 402.7 840 416.3 870 423.2L900 430L900 451L870 451C840 451 780 451 720 451C660 451 600 451 540 451C480 451 420 451 360 451C300 451 240 451 180 451C120 451 60 451 30 451L0 451Z" fill="#08080C" stroke-linecap="round" stroke-linejoin="miter"></path></svg>
