<?xml version="1.0" encoding="UTF-8" standalone="no"?>
<svg
   xmlns:dc="http://purl.org/dc/elements/1.1/"
   xmlns:cc="http://creativecommons.org/ns#"
   xmlns:rdf="http://www.w3.org/1999/02/22-rdf-syntax-ns#"
   xmlns:svg="http://www.w3.org/2000/svg"
   xmlns="http://www.w3.org/2000/svg"
   xmlns:sodipodi="http://sodipodi.sourceforge.net/DTD/sodipodi-0.dtd"
   xmlns:inkscape="http://www.inkscape.org/namespaces/inkscape"
   id="SVGRoot"
   version="1.1"
   viewBox="0 0 579.91431 551.27551"
   height="551.27551"
   width="579.91431"
   inkscape:version="1.0 (4035a4fb49, 2020-05-01)"
   sodipodi:docname="DeejPotterLogoPadding.svg"
   inkscape:export-filename="C:\Users\deejp\Google Drive\Website Stuff\Deej Potter\Images\DeejPotterLogoPadding.png"
   inkscape:export-xdpi="96.019691"
   inkscape:export-ydpi="96.019691">
  <defs
     id="defs1402">
    <rect
       id="rect853"
       height="384"
       width="384"
       y="128"
       x="0" />
    <rect
       id="rect847"
       height="72"
       width="24"
       y="96"
       x="0" />
    <rect
       id="rect841"
       height="352"
       width="320"
       y="160"
       x="0" />
    <filter
       style="color-interpolation-filters:sRGB"
       inkscape:label="Drop Shadow"
       id="filter1102">
      <feFlood
         flood-opacity="0.498039"
         flood-color="rgb(0,0,0)"
         result="flood"
         id="feFlood1092" />
      <feComposite
         in="flood"
         in2="SourceGraphic"
         operator="in"
         result="composite1"
         id="feComposite1094" />
      <feGaussianBlur
         in="composite1"
         stdDeviation="3"
         result="blur"
         id="feGaussianBlur1096" />
      <feOffset
         dx="6"
         dy="6"
         result="offset"
         id="feOffset1098" />
      <feComposite
         in="SourceGraphic"
         in2="offset"
         operator="over"
         result="composite2"
         id="feComposite1100" />
    </filter>
    <filter
       height="1.3"
       width="1.3"
       style="color-interpolation-filters:sRGB"
       inkscape:label="Drop Shadow"
       id="filter1114">
      <feFlood
         flood-opacity="0.498039"
         flood-color="rgb(0,0,0)"
         result="flood"
         id="feFlood1104" />
      <feComposite
         in="flood"
         in2="SourceGraphic"
         operator="in"
         result="composite1"
         id="feComposite1106" />
      <feGaussianBlur
         in="composite1"
         stdDeviation="3"
         result="blur"
         id="feGaussianBlur1108" />
      <feOffset
         dx="6"
         dy="6"
         result="offset"
         id="feOffset1110" />
      <feComposite
         in="SourceGraphic"
         in2="offset"
         operator="over"
         result="composite2"
         id="feComposite1112" />
    </filter>
    <filter
       height="1.3"
       width="1.3"
       style="color-interpolation-filters:sRGB"
       inkscape:label="Drop Shadow"
       id="filter1126">
      <feFlood
         flood-opacity="0.498039"
         flood-color="rgb(0,0,0)"
         result="flood"
         id="feFlood1116" />
      <feComposite
         in="flood"
         in2="SourceGraphic"
         operator="in"
         result="composite1"
         id="feComposite1118" />
      <feGaussianBlur
         in="composite1"
         stdDeviation="3"
         result="blur"
         id="feGaussianBlur1120" />
      <feOffset
         dx="6"
         dy="6"
         result="offset"
         id="feOffset1122" />
      <feComposite
         in="SourceGraphic"
         in2="offset"
         operator="over"
         result="composite2"
         id="feComposite1124" />
    </filter>
  </defs>
  <sodipodi:namedview
     inkscape:snap-global="false"
     id="base"
     pagecolor="#ffffff"
     bordercolor="#666666"
     borderopacity="1.0"
     inkscape:pageopacity="0.0"
     inkscape:pageshadow="2"
     inkscape:zoom="1.5211926"
     inkscape:cx="229.74588"
     inkscape:cy="272.73433"
     inkscape:document-units="px"
     inkscape:current-layer="layer1"
     inkscape:document-rotation="0"
     showgrid="true"
     inkscape:window-width="1920"
     inkscape:window-height="1017"
     inkscape:window-x="-8"
     inkscape:window-y="-8"
     inkscape:window-maximized="1">
    <inkscape:grid
       originy="-44.879522"
       originx="-31.228571"
       type="xygrid"
       id="grid1976"
       spacingx="8"
       spacingy="8"
       empspacing="4" />
  </sodipodi:namedview>
  <metadata
     id="metadata1405">
    <rdf:RDF>
      <cc:Work
         rdf:about="">
        <dc:format>image/svg+xml</dc:format>
        <dc:type
           rdf:resource="http://purl.org/dc/dcmitype/StillImage" />
        <dc:title></dc:title>
      </cc:Work>
    </rdf:RDF>
    <rdf:RDF>
      <cc:Work
         rdf:about="">
        <dc:title />
      </cc:Work>
    </rdf:RDF>
  </metadata>
  <g
     transform="translate(-31.228571,-44.879522)"
     inkscape:label="Background"
     id="layer2"
     inkscape:groupmode="layer">
    <path
       sodipodi:nodetypes="csc"
       id="path887"
       d="m 238.57143,188.14286 c 24,24 30.5579,-29.59042 56,-16 l 25.60714,13.67857"
       style="fill:none;stroke:#000000;stroke-width:5;stroke-linecap:butt;stroke-linejoin:miter;stroke-miterlimit:4;stroke-dasharray:none;stroke-opacity:1" />
    <path
       sodipodi:nodetypes="cssc"
       id="path889"
       d="m 440.12501,209.30357 c 0,0 49.30357,-0.58929 41.30357,31.41071 -8,32 -37.3934,28.717 -29.3934,44.717 8,16 5.3934,19.283 5.3934,19.283"
       style="fill:none;stroke:#000000;stroke-width:5;stroke-linecap:butt;stroke-linejoin:miter;stroke-miterlimit:4;stroke-dasharray:none;stroke-opacity:1" />
  </g>
  <g
     transform="translate(-31.228571,-44.879522)"
     inkscape:label="Layer 1"
     inkscape:groupmode="layer"
     id="layer1">
    <text
       style="font-style:normal;font-weight:normal;font-size:40px;line-height:1.25;font-family:sans-serif;white-space:pre;shape-inside:url(#rect841);fill:#000000;fill-opacity:1;stroke:none;"
       id="text839"
       xml:space="preserve"
       transform="translate(80.622528,75.005689)" />
    <text
       style="font-style:normal;font-weight:normal;font-size:40px;line-height:1.25;font-family:sans-serif;white-space:pre;shape-inside:url(#rect847);fill:#000000;fill-opacity:1;stroke:none;"
       id="text845"
       xml:space="preserve"
       transform="translate(80.622528,75.005689)" />
    <g
       aria-label="Deej Potter"
       transform="translate(107.0511,130.00569)"
       id="text851"
       style="font-style:normal;font-variant:normal;font-weight:normal;font-stretch:normal;font-size:120px;line-height:1.25;font-family:'Fredoka One';-inkscape-font-specification:'Fredoka One, Normal';font-variant-ligatures:normal;font-variant-caps:normal;font-variant-numeric:normal;font-variant-east-asian:normal;white-space:pre;shape-inside:url(#rect853);fill:#000000;fill-opacity:1;stroke:none">
      <path
         id="path875"
         style="font-style:normal;font-variant:normal;font-weight:normal;font-stretch:normal;font-size:120px;font-family:'Fredoka One';-inkscape-font-specification:'Fredoka One, Normal';font-variant-ligatures:normal;font-variant-caps:normal;font-variant-numeric:normal;font-variant-east-asian:normal"
         d="m 359.71312,327.07504 q 2.28001,0.72 3.72001,2.52 1.56,1.68 1.56,5.52 0,3.84 -2.28001,8.4 -2.27999,4.56 -6.6,4.56 -2.16,0 -4.2,-0.96 -1.91999,-0.96 -5.16,-0.96 -3.24,0 -6.12,2.28 -2.75999,2.28 -2.75999,5.52 v 25.2 q 0,2.76 -0.24001,4.2 -0.12,1.32 -1.07999,3.12 -1.80001,3.12 -9.36001,3.12 -5.75999,0 -8.28,-2.04 -1.91999,-1.68 -2.16,-5.16 0,-1.2 0,-3.48 v -42.12 q 0,-2.76 0.12001,-4.08 0.24,-1.44 1.07999,-3.12 1.68,-3.24 9.36001,-3.24 7.19999,0 9,2.76 1.31999,1.92 1.31999,3.96 0.6,-0.84 1.68001,-2.04 1.19999,-1.2 4.91999,-3.24 3.72,-2.04 6.48,-2.04 2.88,0 4.8,0.36 1.92001,0.24 4.2,0.96 z m -50.67187,23.4 q 0,7.32 -3.72,10.92 -3.6,3.48 -8.04,3.48 h -28.44 q 0,3.36 3.96,5.64 3.96,2.28 7.92,2.28 6.96,0 10.92,-1.44 l 1.32,-0.48 q 2.88,-1.32 4.8,-1.32 3.84,0 6.6,5.4 1.56,3.24 1.56,5.52 0,10.68 -25.56,10.68 -8.88,0 -15.84,-3 -6.84,-3.12 -10.68,-8.16 -7.56,-9.72 -7.56,-21.72 0,-15.12 9.72,-24.12 9.84,-9.12 24.48,-9.12 16.68,0 24.48,11.76 4.08,6.24 4.08,13.68 z m -25.32,3.48 q 4.56,0 4.56,-3.84 0,-2.76 -2.16,-4.44 -2.04,-1.68 -6,-1.68 -3.84,0 -7.68,3.24 -3.84,3.12 -3.84,6.72 z m -52.91062,-6.36 -7.80001,-0.48 v 16.56 q 0,3.24 0.96,4.68 1.08,1.44 3.84001,1.44 2.87999,0 4.31999,0.24 1.56,0.12 3.12001,1.08 2.87999,1.56 2.87999,8.04 0,7.56 -3.36,9.24 -1.8,0.84 -3.23999,1.08 -1.32001,0.12 -3.96001,0.12 -12,0 -18.72,-6.24 -6.72,-6.24 -6.72,-18.48 v -17.76 q -5.75999,0.48 -9.6,0.48 l -10.92,-0.48 v 16.56 q 0,3.24 0.96,4.68 1.08,1.44 3.84,1.44 2.88,0 4.32,0.24 1.56,0.12 3.24,1.08 2.76,1.56 2.76,8.04 0,7.56 -3.35999,9.24 -1.80001,0.84 -3.24001,1.08 -1.31999,0.12 -3.96,0.12 -12,0 -18.72,-6.24 -6.72,-6.24 -6.72,-18.48 v -17.76 q -2.4,0.36 -5.04,0.36 -2.52,0 -4.32,-2.04 -1.68,-2.04 -1.68,-6.96 0,-4.92 0.6,-7.08 0.6,-2.28 1.68,-3.24 1.92,-1.56 4.8,-1.56 l 3.96,0.48 v -12.36 q 0,-2.76 0.12,-4.08 0.24,-1.32 1.2,-2.88 1.56,-3 9.24,-3 8.16,0 9.72,4.44 0.6,1.92 0.6,6.12 v 11.4 q 5.64001,-0.12 10.68,-0.12 l 9.84,0.12 v -12 q 0,-2.76 0.12001,-4.08 0.23999,-1.32 1.07999,-2.88 1.68,-3 9.36,-3 8.16,0 9.6,4.44 0.72,1.92 0.72,6.12 v 11.76 q 5.28,-0.48 7.92001,-0.48 2.75999,0 4.07999,0.24 1.44,0.12 3.12,1.08 3.24001,1.56 3.24001,9.24 0,7.56 -3.24001,9.24 -1.8,0.84 -3.24,1.08 -1.32,0.12 -4.07999,0.12 z m -151.87313,10.44 q 0,-14.4 10.08,-23.76 10.08,-9.36 23.04,-9.36 12.96,0 22.92,9.36 9.96,9.24 9.96,23.64 0,9.96 -5.16,17.76 -5.16,7.68 -12.6,11.4 -7.32,3.6 -15.24,3.6 -7.92,0 -15.36,-3.84 -7.44,-3.96 -12.6,-11.52 -5.04,-7.68 -5.04,-17.28 z m 25.08,8.64 q 3.84,2.88 7.8,2.88 3.96,0 7.92,-3 3.96,-3 3.96,-8.88 0,-5.88 -3.72,-8.76 -3.72,-2.88 -8.04,-2.88 -4.32,0 -8.04,3 -3.72,3 -3.72,8.88 0,5.76 3.84,8.76 z m -34.2975,-47.28 q 3.12,6.36 3.12,14.16 0,7.8 -3.12,14.16 -3.12,6.24 -8.04,9.96 -9.96,7.68 -20.64,7.68 h -15 v 13.56 q 0,2.76 -0.24,4.2 -0.12,1.32 -1.08,3.12 -1.68,3.24 -9.36,3.24 -8.4,0 -9.84,-4.44 -0.72,-2.04 -0.72,-6.24 v -66.6 q 0,-2.76 0.12,-4.08 0.24,-1.44 1.2,-3.24 1.68,-3.24 9.36,-3.24 h 25.68 q 10.56,0 20.52,7.68 4.92,3.72 8.04,10.08 z m -28.56,24.72 q 3.6,0 7.08,-2.64 3.48,-2.64 3.48,-7.92 0,-5.28 -3.48,-7.92 -3.48,-2.76 -7.2,-2.76 h -15 v 21.24 z m 201.43875,-177.12 q -2.16,0.6 -5.88,0.6 -3.72,0 -5.88,-0.72 -2.16,-0.72 -3.12,-2.4 -0.84,-1.8 -1.08,-3.12 -0.12,-1.44 -0.12,-4.2 0,-2.76 0.12,-4.08 0.24,-1.32 1.08,-3 1.68,-3.12 9.24,-3.12 7.2,0 9,3.12 0.84,1.56 0.96,2.88 0.24,1.32 0.24,3.96 v 0.72 q 0,2.64 -0.24,3.96 -0.12,1.32 -1.08,3 -0.96,1.68 -3.24,2.4 z m -11.64,9.72 q 2.28,-0.72 6,-0.72 3.72,0 5.88,0.72 2.16,0.72 3,2.52 0.96,1.68 1.08,3.12 0.24,1.32 0.24,4.08 v 49.44 q 0,14.04 -9.72,22.44 -9.72,8.4 -21.36,8.4 -2.76,0 -4.08,-0.24 -1.32,-0.12 -3,-0.96 -3.12,-1.68 -3.12,-8.76 0,-7.08 2.64,-8.88 2.52,-1.8 6.96,-1.8 4.32,0 7.68,-2.4 3.36,-2.4 3.36,-8.64 v -49.44 q 0,-4.2 1.08,-6.12 1.2,-2.04 3.36,-2.76 z m -12.15188,23.76 q 0,7.32 -3.72,10.92 -3.6,3.48 -8.04,3.48 h -28.44 q 0,3.36 3.96,5.64 3.96001,2.28 7.92,2.28 6.96,0 10.92001,-1.44 l 1.31999,-0.48 q 2.88,-1.32 4.80001,-1.32 3.83999,0 6.59999,5.4 1.56,3.24 1.56,5.52 0,10.68 -25.56,10.68 -8.88,0 -15.84,-3 -6.84,-3.12 -10.68,-8.16 -7.56,-9.72 -7.56,-21.72 0,-15.12 9.72,-24.12 9.84,-9.12 24.48,-9.12 16.68,0 24.48,11.76 4.08,6.24 4.08,13.68 z m -25.32,3.48 q 4.56,0 4.56,-3.84 0,-2.76 -2.16,-4.44 -2.04,-1.68 -6,-1.68 -3.84,0 -7.68,3.24 -3.84,3.12 -3.84,6.72 z m -43.35187,-3.48 q 0,7.32 -3.72,10.92 -3.6,3.48 -8.04,3.48 h -28.44 q 0,3.36 3.96,5.64 3.96,2.28 7.92,2.28 6.96,0 10.92,-1.44 l 1.32,-0.48 q 2.88,-1.32 4.8,-1.32 3.84,0 6.6,5.4 1.56,3.24 1.56,5.52 0,10.68 -25.56,10.68 -8.88,0 -15.84,-3 -6.84,-3.12 -10.68,-8.16 -7.56,-9.72 -7.56,-21.72 0,-15.12 9.72,-24.12 9.84,-9.12 24.48,-9.12 16.68,0 24.48,11.76 4.08,6.24 4.08,13.68 z m -25.32,3.48 q 4.56,0 4.56,-3.84 0,-2.76 -2.16,-4.44 -2.04,-1.68 -6,-1.68 -3.84,0 -7.68,3.24 -3.84,3.12 -3.84,6.72 z m -109.335,-52.44 22.2,0.12 q 17.4,0 30.6,12.6 13.2,12.48 13.2,30.84 0,18.24 -12.96,31.32 -12.84,13.08 -31.2,13.08 H 15.36 q -7.32,0 -9.12,-3 -1.44,-2.52 -1.44,-7.68 v -66.72 q 0,-2.88 0.12,-4.2 0.24,-1.32 1.2,-3.12 1.68,-3.24 9.36,-3.24 z m 22.2,66.72 q 8.64,0 15.6,-6.36 6.96,-6.48 6.96,-16.2 0,-9.72 -6.84,-16.2 -6.72,-6.6 -15.84,-6.6 H 26.04 v 45.36 z" />
    </g>
    <ellipse
       ry="58.68132"
       rx="58.681316"
       cy="190.29141"
       cx="180.47968"
       id="path857"
       style="opacity:0.991;fill:none;fill-rule:evenodd;stroke:#59b7cc;stroke-width:15;stroke-miterlimit:4;stroke-dasharray:none;stroke-opacity:1;filter:url(#filter1114)" />
    <ellipse
       rx="58.667603"
       ry="59.024746"
       style="opacity:0.991;fill:none;fill-rule:evenodd;stroke:#26bf66;stroke-width:20;stroke-miterlimit:4;stroke-dasharray:none;filter:url(#filter1126)"
       id="ellipse859"
       cx="385.33679"
       cy="192.64856" />
    <ellipse
       ry="59.024746"
       rx="58.667603"
       cy="361.36282"
       cx="461.90823"
       id="ellipse861"
       style="opacity:0.991;fill:none;fill-rule:evenodd;stroke:#684e5a;stroke-width:15;stroke-miterlimit:4;stroke-dasharray:none;stroke-opacity:1;filter:url(#filter1126)" />
  </g>
</svg>
