<svg xmlns="http://www.w3.org/2000/svg" height="401.276" width="417.914"><defs><filter height="1.3" width="1.3" style="color-interpolation-filters:sRGB" id="e"><feFlood flood-opacity=".498" flood-color="#000" result="flood"/><feComposite in="flood" in2="SourceGraphic" operator="in" result="composite1"/><feGaussianBlur in="composite1" stdDeviation="3" result="blur"/><feOffset dx="6" dy="6" result="offset"/><feComposite in="SourceGraphic" in2="offset" result="composite2"/></filter><filter height="1.3" width="1.3" style="color-interpolation-filters:sRGB" id="d"><feFlood flood-opacity=".498" flood-color="#000" result="flood"/><feComposite in="flood" in2="SourceGraphic" operator="in" result="composite1"/><feGaussianBlur in="composite1" stdDeviation="3" result="blur"/><feOffset dx="6" dy="6" result="offset"/><feComposite in="SourceGraphic" in2="offset" result="composite2"/></filter><filter height="1.3" width="1.3" style="color-interpolation-filters:sRGB" id="f"><feFlood flood-opacity=".498" flood-color="#000" result="flood"/><feComposite in="flood" in2="SourceGraphic" operator="in" result="composite1"/><feGaussianBlur in="composite1" stdDeviation="3" result="blur"/><feOffset dx="6" dy="6" result="offset"/><feComposite in="SourceGraphic" in2="offset" result="composite2"/></filter><path id="c" d="M0 128h384v384H0z"/><path id="b" d="M0 96h24v72H0z"/><path id="a" d="M0 160h320v352H0z"/></defs><path d="M158.571 111.714c24 24 30.558-29.59 56-16l25.608 13.679M360.125 132.875s49.304-.59 41.304 31.41-37.394 28.718-29.394 44.718c8 16 5.394 19.283 5.394 19.283" style="fill:none;stroke:#000;stroke-width:5;stroke-linecap:butt;stroke-linejoin:miter;stroke-miterlimit:4;stroke-dasharray:none;stroke-opacity:1" transform="translate(-31.229 -44.88)"/><g transform="translate(-31.229 -44.88)"><g style="font-style:normal;font-variant:normal;font-weight:400;font-stretch:normal;font-size:120px;line-height:1.25;font-family:'Fredoka One';-inkscape-font-specification:'Fredoka One, Normal';font-variant-ligatures:normal;font-variant-caps:normal;font-variant-numeric:normal;font-variant-east-asian:normal;white-space:pre;shape-inside:url(#c);fill:#000;fill-opacity:1;stroke:none"><path style="font-style:normal;font-variant:normal;font-weight:400;font-stretch:normal;font-size:120px;font-family:'Fredoka One';-inkscape-font-specification:'Fredoka One, Normal';font-variant-ligatures:normal;font-variant-caps:normal;font-variant-numeric:normal;font-variant-east-asian:normal" d="M359.713 327.075q2.28.72 3.72 2.52 1.56 1.68 1.56 5.52t-2.28 8.4q-2.28 4.56-6.6 4.56-2.16 0-4.2-.96-1.92-.96-5.16-.96t-6.12 2.28q-2.76 2.28-2.76 5.52v25.2q0 2.76-.24 4.2-.12 1.32-1.08 3.12-1.8 3.12-9.36 3.12-5.76 0-8.28-2.04-1.92-1.68-2.16-5.16V336.795q0-2.76.12-4.08.24-1.44 1.08-3.12 1.68-3.24 9.36-3.24 7.2 0 9 2.76 1.32 1.92 1.32 3.96.6-.84 1.68-2.04 1.2-1.2 4.92-3.24 3.72-2.04 6.48-2.04 2.88 0 4.8.36 1.92.24 4.2.96zm-50.672 23.4q0 7.32-3.72 10.92-3.6 3.48-8.04 3.48h-28.44q0 3.36 3.96 5.64t7.92 2.28q6.96 0 10.92-1.44l1.32-.48q2.88-1.32 4.8-1.32 3.84 0 6.6 5.4 1.56 3.24 1.56 5.52 0 10.68-25.56 10.68-8.88 0-15.84-3-6.84-3.12-10.68-8.16-7.56-9.72-7.56-21.72 0-15.12 9.72-24.12 9.84-9.12 24.48-9.12 16.68 0 24.48 11.76 4.08 6.24 4.08 13.68zm-25.32 3.48q4.56 0 4.56-3.84 0-2.76-2.16-4.44-2.04-1.68-6-1.68-3.84 0-7.68 3.24-3.84 3.12-3.84 6.72zm-52.91-6.36-7.8-.48v16.56q0 3.24.96 4.68 1.08 1.44 3.84 1.44 2.88 0 4.32.24 1.56.12 3.12 1.08 2.88 1.56 2.88 8.04 0 7.56-3.36 9.24-1.8.84-3.24 1.08-1.32.12-3.96.12-12 0-18.72-6.24-6.72-6.24-6.72-18.48v-17.76q-5.76.48-9.6.48l-10.92-.48v16.56q0 3.24.96 4.68 1.08 1.44 3.84 1.44 2.88 0 4.32.24 1.56.12 3.24 1.08 2.76 1.56 2.76 8.04 0 7.56-3.36 9.24-1.8.84-3.24 1.08-1.32.12-3.96.12-12 0-18.72-6.24-6.72-6.24-6.72-18.48v-17.76q-2.4.36-5.04.36-2.52 0-4.32-2.04-1.68-2.04-1.68-6.96t.6-7.08q.6-2.28 1.68-3.24 1.92-1.56 4.8-1.56l3.96.48v-12.36q0-2.76.12-4.08.24-1.32 1.2-2.88 1.56-3 9.24-3 8.16 0 9.72 4.44.6 1.92.6 6.12v11.4q5.64-.12 10.68-.12l9.84.12v-12q0-2.76.12-4.08.24-1.32 1.08-2.88 1.68-3 9.36-3 8.16 0 9.6 4.44.72 1.92.72 6.12v11.76q5.28-.48 7.92-.48 2.76 0 4.08.24 1.44.12 3.12 1.08 3.24 1.56 3.24 9.24 0 7.56-3.24 9.24-1.8.84-3.24 1.08-1.32.12-4.08.12zm-151.874 10.44q0-14.4 10.08-23.76 10.08-9.36 23.04-9.36 12.96 0 22.92 9.36 9.96 9.24 9.96 23.64 0 9.96-5.16 17.76-5.16 7.68-12.6 11.4-7.32 3.6-15.24 3.6t-15.36-3.84q-7.44-3.96-12.6-11.52-5.04-7.68-5.04-17.28zm25.08 8.64q3.84 2.88 7.8 2.88t7.92-3q3.96-3 3.96-8.88 0-5.88-3.72-8.76t-8.04-2.88q-4.32 0-8.04 3-3.72 3-3.72 8.88 0 5.76 3.84 8.76zm-34.297-47.28q3.12 6.36 3.12 14.16t-3.12 14.16q-3.12 6.24-8.04 9.96-9.96 7.68-20.64 7.68h-15v13.56q0 2.76-.24 4.2-.12 1.32-1.08 3.12-1.68 3.24-9.36 3.24-8.4 0-9.84-4.44-.72-2.04-.72-6.24v-66.6q0-2.76.12-4.08.24-1.44 1.2-3.24 1.68-3.24 9.36-3.24h25.68q10.56 0 20.52 7.68 4.92 3.72 8.04 10.08zm-28.56 24.72q3.6 0 7.08-2.64t3.48-7.92q0-5.28-3.48-7.92-3.48-2.76-7.2-2.76h-15v21.24zm201.439-177.12q-2.16.6-5.88.6-3.72 0-5.88-.72-2.16-.72-3.12-2.4-.84-1.8-1.08-3.12-.12-1.44-.12-4.2 0-2.76.12-4.08.24-1.32 1.08-3 1.68-3.12 9.24-3.12 7.2 0 9 3.12.84 1.56.96 2.88.24 1.32.24 3.96v.72q0 2.64-.24 3.96-.12 1.32-1.08 3-.96 1.68-3.24 2.4zm-11.64 9.72q2.28-.72 6-.72t5.88.72q2.16.72 3 2.52.96 1.68 1.08 3.12.24 1.32.24 4.08v49.44q0 14.04-9.72 22.44-9.72 8.4-21.36 8.4-2.76 0-4.08-.24-1.32-.12-3-.96-3.12-1.68-3.12-8.76t2.64-8.88q2.52-1.8 6.96-1.8 4.32 0 7.68-2.4 3.36-2.4 3.36-8.64v-49.44q0-4.2 1.08-6.12 1.2-2.04 3.36-2.76zm-12.152 23.76q0 7.32-3.72 10.92-3.6 3.48-8.04 3.48h-28.44q0 3.36 3.96 5.64t7.92 2.28q6.96 0 10.92-1.44l1.32-.48q2.88-1.32 4.8-1.32 3.84 0 6.6 5.4 1.56 3.24 1.56 5.52 0 10.68-25.56 10.68-8.88 0-15.84-3-6.84-3.12-10.68-8.16-7.56-9.72-7.56-21.72 0-15.12 9.72-24.12 9.84-9.12 24.48-9.12 16.68 0 24.48 11.76 4.08 6.24 4.08 13.68zm-25.32 3.48q4.56 0 4.56-3.84 0-2.76-2.16-4.44-2.04-1.68-6-1.68-3.84 0-7.68 3.24-3.84 3.12-3.84 6.72zm-43.352-3.48q0 7.32-3.72 10.92-3.6 3.48-8.04 3.48h-28.44q0 3.36 3.96 5.64t7.92 2.28q6.96 0 10.92-1.44l1.32-.48q2.88-1.32 4.8-1.32 3.84 0 6.6 5.4 1.56 3.24 1.56 5.52 0 10.68-25.56 10.68-8.88 0-15.84-3-6.84-3.12-10.68-8.16-7.56-9.72-7.56-21.72 0-15.12 9.72-24.12 9.84-9.12 24.48-9.12 16.68 0 24.48 11.76 4.08 6.24 4.08 13.68zm-25.32 3.48q4.56 0 4.56-3.84 0-2.76-2.16-4.44-2.04-1.68-6-1.68-3.84 0-7.68 3.24-3.84 3.12-3.84 6.72zM15.48 151.515l22.2.12q17.4 0 30.6 12.6 13.2 12.48 13.2 30.84 0 18.24-12.96 31.32-12.84 13.08-31.2 13.08H15.36q-7.32 0-9.12-3-1.44-2.52-1.44-7.68v-66.72q0-2.88.12-4.2.24-1.32 1.2-3.12 1.68-3.24 9.36-3.24zm22.2 66.72q8.64 0 15.6-6.36 6.96-6.48 6.96-16.2 0-9.72-6.84-16.2-6.72-6.6-15.84-6.6H26.04v45.36z" aria-label="Deej Potter" transform="translate(26.429 55)"/></g><circle cy="115.286" cx="99.857" style="opacity:.991;fill:none;fill-rule:evenodd;stroke:#59b7cc;stroke-width:15;stroke-miterlimit:4;stroke-dasharray:none;stroke-opacity:1;filter:url(#d)" r="58.681"/><ellipse rx="58.668" ry="59.025" style="opacity:.991;fill:none;fill-rule:evenodd;stroke:#26bf66;stroke-width:20;stroke-miterlimit:4;stroke-dasharray:none;filter:url(#e)" cx="304.714" cy="117.643"/><ellipse ry="59.025" rx="58.668" cy="286.357" cx="369.857" style="opacity:.991;fill:none;fill-rule:evenodd;stroke:#684e5a;stroke-width:15;stroke-miterlimit:4;stroke-dasharray:none;stroke-opacity:1;filter:url(#f)"/></g></svg>