<svg id="visual" viewBox="0 0 900 450" width="900" height="450" xmlns="http://www.w3.org/2000/svg" xmlns:xlink="http://www.w3.org/1999/xlink" version="1.1"><rect x="0" y="0" width="900" height="450" fill="#3A2C33"></rect><defs><linearGradient id="grad1_0" x1="50%" y1="0%" x2="100%" y2="100%"><stop offset="10%" stop-color="#3a2c33" stop-opacity="1"></stop><stop offset="90%" stop-color="#3a2c33" stop-opacity="1"></stop></linearGradient></defs><defs><linearGradient id="grad2_0" x1="0%" y1="0%" x2="50%" y2="100%"><stop offset="10%" stop-color="#3a2c33" stop-opacity="1"></stop><stop offset="90%" stop-color="#3a2c33" stop-opacity="1"></stop></linearGradient></defs><g transform="translate(900, 0)"><path d="M0 279C-49.8 304.2 -99.6 329.4 -129.2 311.8C-158.7 294.2 -168.1 233.7 -198 198C-227.9 162.3 -278.2 151.3 -295.6 122.5C-313.1 93.6 -297.5 46.8 -282 0L0 0Z" fill="#1E9952"></path></g><g transform="translate(0, 450)"><path d="M0 -319C46.3 -319.7 92.6 -320.4 122.8 -296.6C153.1 -272.7 167.4 -224.3 192.3 -192.3C217.3 -160.4 253 -144.9 279 -115.6C305 -86.3 321.2 -43.1 337.5 0L0 0Z" fill="#1E9952"></path></g></svg>